<svg xmlns="http://www.w3.org/2000/svg" xmlns:xlink="http://www.w3.org/1999/xlink" width="16" height="16" viewBox="0 0 16 16">
  <defs>
    <clipPath id="clip-path">
      <rect id="Rectangle_18341" data-name="Rectangle 18341" width="16" height="16" transform="translate(888 944)" fill="#fff" stroke="#707070" stroke-width="1"/>
    </clipPath>
  </defs>
  <g id="Mask_Group_347" data-name="Mask Group 347" transform="translate(-888 -944)" clip-path="url(#clip-path)">
    <path id="icons8_twitter_squared" d="M18.4,4.8A10.527,10.527,0,0,1,15.788,5.82c-.022.006-.039.013-.06.018A3.6,3.6,0,0,0,9.6,8.4c0,.1-.009.3,0,.4A7.908,7.908,0,0,1,3.412,5.6a4.871,4.871,0,0,0-.229,1.626,3.551,3.551,0,0,0,2.24,2.9,3.279,3.279,0,0,1-.816.111A2.149,2.149,0,0,1,3.2,9.746v.041c0,1.566,1.662,2.633,3.141,2.93a2.866,2.866,0,0,1-1.2.194c-.208,0-.944-.1-1.141-.132A3.441,3.441,0,0,0,7.308,14.81C6.2,15.677,5.435,16,3.171,16H2.4a9.7,9.7,0,0,0,5.078,1.6A8.937,8.937,0,0,0,16.8,8.8c0-.069,0-.213,0-.358,0-.014,0-.028,0-.042s-.006-.042-.006-.064c0-.109,0-.21-.007-.263A6.574,6.574,0,0,0,18.4,6.4a6.456,6.456,0,0,1-1.856.509A4.846,4.846,0,0,0,18.4,4.8Z" transform="translate(885.6 940.801)" fill="#fff"/>
  </g>
</svg>
